<mxfile host="app.diagrams.net" modified="2023-03-07T21:56:58.294Z" agent="5.0 (Windows)" etag="CHnAjOMU2-1z2kA2XDrg" version="21.0.2" type="github">
  <diagram name="PÃ¡gina-1" id="7EErDG-B6mHVBwSj4Opk">
    <mxGraphModel dx="1372" dy="794" grid="1" gridSize="10" guides="1" tooltips="1" connect="1" arrows="1" fold="1" page="1" pageScale="1" pageWidth="827" pageHeight="1169" math="0" shadow="0">
      <root>
        <mxCell id="0" />
        <mxCell id="1" parent="0" />
        <mxCell id="47qvHuTPxpaRcjEA9GF4-6" style="edgeStyle=orthogonalEdgeStyle;rounded=0;orthogonalLoop=1;jettySize=auto;html=1;" edge="1" parent="1" source="47qvHuTPxpaRcjEA9GF4-2" target="47qvHuTPxpaRcjEA9GF4-3">
          <mxGeometry relative="1" as="geometry" />
        </mxCell>
        <mxCell id="47qvHuTPxpaRcjEA9GF4-2" value="&lt;div&gt;Inicio Ejecucion&lt;/div&gt;" style="rounded=1;whiteSpace=wrap;html=1;" vertex="1" parent="1">
          <mxGeometry x="354" y="60" width="120" height="60" as="geometry" />
        </mxCell>
        <mxCell id="47qvHuTPxpaRcjEA9GF4-12" value="" style="edgeStyle=orthogonalEdgeStyle;rounded=0;orthogonalLoop=1;jettySize=auto;html=1;" edge="1" parent="1" source="47qvHuTPxpaRcjEA9GF4-3" target="47qvHuTPxpaRcjEA9GF4-21">
          <mxGeometry relative="1" as="geometry">
            <mxPoint x="414" y="280" as="targetPoint" />
          </mxGeometry>
        </mxCell>
        <mxCell id="47qvHuTPxpaRcjEA9GF4-3" value="&lt;div&gt;Consulta BDD&lt;/div&gt;&lt;div&gt;listado Estaciones&lt;br&gt;&lt;/div&gt;" style="shape=process;whiteSpace=wrap;html=1;backgroundOutline=1;" vertex="1" parent="1">
          <mxGeometry x="346" y="170" width="136" height="60" as="geometry" />
        </mxCell>
        <mxCell id="47qvHuTPxpaRcjEA9GF4-22" style="edgeStyle=orthogonalEdgeStyle;rounded=0;orthogonalLoop=1;jettySize=auto;html=1;entryX=1;entryY=0.5;entryDx=0;entryDy=0;" edge="1" parent="1" source="47qvHuTPxpaRcjEA9GF4-21" target="47qvHuTPxpaRcjEA9GF4-3">
          <mxGeometry relative="1" as="geometry">
            <Array as="points">
              <mxPoint x="530" y="310" />
              <mxPoint x="530" y="200" />
            </Array>
          </mxGeometry>
        </mxCell>
        <mxCell id="47qvHuTPxpaRcjEA9GF4-27" value="" style="edgeStyle=orthogonalEdgeStyle;rounded=0;orthogonalLoop=1;jettySize=auto;html=1;" edge="1" parent="1" source="47qvHuTPxpaRcjEA9GF4-21" target="47qvHuTPxpaRcjEA9GF4-26">
          <mxGeometry relative="1" as="geometry" />
        </mxCell>
        <mxCell id="47qvHuTPxpaRcjEA9GF4-21" value="&lt;div&gt;Existe &lt;br&gt;&lt;/div&gt;&lt;div&gt;Listado&lt;/div&gt;" style="rhombus;whiteSpace=wrap;html=1;" vertex="1" parent="1">
          <mxGeometry x="374" y="270" width="80" height="80" as="geometry" />
        </mxCell>
        <mxCell id="47qvHuTPxpaRcjEA9GF4-29" value="" style="edgeStyle=orthogonalEdgeStyle;rounded=0;orthogonalLoop=1;jettySize=auto;html=1;" edge="1" parent="1" source="47qvHuTPxpaRcjEA9GF4-26" target="47qvHuTPxpaRcjEA9GF4-28">
          <mxGeometry relative="1" as="geometry" />
        </mxCell>
        <mxCell id="47qvHuTPxpaRcjEA9GF4-26" value="&lt;div&gt;Revision&lt;/div&gt;&lt;div&gt;Unidades de red&lt;/div&gt;&lt;div&gt;192.168.1.22/media/respaldos&lt;br&gt;&lt;/div&gt;" style="shape=process;whiteSpace=wrap;html=1;backgroundOutline=1;" vertex="1" parent="1">
          <mxGeometry x="331" y="400" width="166" height="60" as="geometry" />
        </mxCell>
        <mxCell id="47qvHuTPxpaRcjEA9GF4-30" style="edgeStyle=orthogonalEdgeStyle;rounded=0;orthogonalLoop=1;jettySize=auto;html=1;entryX=1;entryY=0.5;entryDx=0;entryDy=0;" edge="1" parent="1" source="47qvHuTPxpaRcjEA9GF4-28" target="47qvHuTPxpaRcjEA9GF4-26">
          <mxGeometry relative="1" as="geometry">
            <Array as="points">
              <mxPoint x="530" y="545" />
              <mxPoint x="530" y="430" />
            </Array>
          </mxGeometry>
        </mxCell>
        <mxCell id="47qvHuTPxpaRcjEA9GF4-32" value="" style="edgeStyle=orthogonalEdgeStyle;rounded=0;orthogonalLoop=1;jettySize=auto;html=1;" edge="1" parent="1" source="47qvHuTPxpaRcjEA9GF4-28" target="47qvHuTPxpaRcjEA9GF4-31">
          <mxGeometry relative="1" as="geometry" />
        </mxCell>
        <mxCell id="47qvHuTPxpaRcjEA9GF4-28" value="&lt;div&gt;Existe&lt;/div&gt;&lt;div&gt;Unidad&lt;/div&gt;" style="rhombus;whiteSpace=wrap;html=1;" vertex="1" parent="1">
          <mxGeometry x="374" y="505" width="80" height="80" as="geometry" />
        </mxCell>
        <mxCell id="47qvHuTPxpaRcjEA9GF4-34" value="" style="edgeStyle=orthogonalEdgeStyle;rounded=0;orthogonalLoop=1;jettySize=auto;html=1;" edge="1" parent="1" source="47qvHuTPxpaRcjEA9GF4-31" target="47qvHuTPxpaRcjEA9GF4-33">
          <mxGeometry relative="1" as="geometry" />
        </mxCell>
        <mxCell id="47qvHuTPxpaRcjEA9GF4-31" value="&lt;div&gt;Rrecorrido&lt;/div&gt;&lt;div&gt;Listado&lt;br&gt;&lt;/div&gt;" style="shape=process;whiteSpace=wrap;html=1;backgroundOutline=1;" vertex="1" parent="1">
          <mxGeometry x="354" y="640" width="120" height="60" as="geometry" />
        </mxCell>
        <mxCell id="47qvHuTPxpaRcjEA9GF4-36" value="" style="edgeStyle=orthogonalEdgeStyle;rounded=0;orthogonalLoop=1;jettySize=auto;html=1;" edge="1" parent="1" source="47qvHuTPxpaRcjEA9GF4-33" target="47qvHuTPxpaRcjEA9GF4-35">
          <mxGeometry relative="1" as="geometry" />
        </mxCell>
        <mxCell id="47qvHuTPxpaRcjEA9GF4-33" value="&lt;div&gt;tipo&lt;/div&gt;&lt;div&gt;transmision&lt;br&gt;&lt;/div&gt;" style="rhombus;whiteSpace=wrap;html=1;" vertex="1" parent="1">
          <mxGeometry x="361" y="750" width="106" height="90" as="geometry" />
        </mxCell>
        <mxCell id="47qvHuTPxpaRcjEA9GF4-35" value="&lt;div&gt;Primer&lt;/div&gt;&lt;div&gt;nivel revision&lt;/div&gt;&lt;div&gt;(estacion/&lt;/div&gt;&lt;div&gt;carpeta en revision)&lt;br&gt;&lt;/div&gt;" style="shape=process;whiteSpace=wrap;html=1;backgroundOutline=1;" vertex="1" parent="1">
          <mxGeometry x="331" y="890" width="166" height="60" as="geometry" />
        </mxCell>
        <mxCell id="47qvHuTPxpaRcjEA9GF4-37" value="PGRS" style="text;strokeColor=none;fillColor=none;spacingLeft=4;spacingRight=4;overflow=hidden;rotatable=0;points=[[0,0.5],[1,0.5]];portConstraint=eastwest;fontSize=12;whiteSpace=wrap;html=1;" vertex="1" parent="1">
          <mxGeometry x="414" y="850" width="56" height="30" as="geometry" />
        </mxCell>
      </root>
    </mxGraphModel>
  </diagram>
</mxfile>
